<svg width="24" height="24" xmlns="http://www.w3.org/2000/svg"><path d="M6.916 17.876l-.803.983a8.94 8.94 0 002.706 1.569l.446-1.202a7.78 7.78 0 01-2.35-1.35zm-2.622-4.59L3 13.549A9.019 9.019 0 004.08 16.5l1.12-.643a7.961 7.961 0 01-.906-2.571zm4.939-8.512l-.447-1.202a8.939 8.939 0 00-2.673 1.569l.803.983a7.78 7.78 0 012.317-1.35zM5.201 8.143L4.08 7.5a9.197 9.197 0 00-1.062 2.95l1.295.22A7.712 7.712 0 015.2 8.142zM11.939 3v1.286c4.29 0 7.767 3.454 7.767 7.714s-3.478 7.714-7.767 7.714V21C16.943 21 21 16.97 21 12s-4.057-9-9.061-9z" fill="inherit" fill-rule="evenodd"/></svg>
