<svg width="24" height="24" xmlns="http://www.w3.org/2000/svg"><path d="M19.553 14.158l-2.003.527-1.72-.961v-2.448l1.72-.96 2.003.526.447-1.64-1.522-.4.396-1.504-1.66-.442-.533 1.98-1.72.961-2.106-1.224V6.652l1.47-1.454L13.106 4l-1.11 1.096L10.888 4 9.666 5.199l1.47 1.453v1.921l-2.15 1.224-1.719-.96-.499-1.981-1.65.442.404 1.505L4 9.201l.447 1.64 2.003-.527 1.72.961v2.457l-1.72.96-2.003-.527L4 15.806l1.522.4-.404 1.496 1.659.442.533-1.98 1.72-.961 2.106 1.224v1.921l-1.47 1.454L10.886 21l1.11-1.096L13.105 21l1.212-1.198-1.462-1.454v-1.921l2.15-1.232 1.72.96.532 1.98 1.617-.433-.404-1.505 1.521-.399-.438-1.64zm-9.707-2.882l2.15-1.232 2.15 1.232v2.448l-2.15 1.232-2.15-1.232v-2.448z" fill="inherit" fill-rule="nonzero"/></svg>
